<mxfile host="app.diagrams.net" modified="2021-07-02T06:35:54.528Z" agent="5.0 (Windows)" etag="bVbaIH1Sk4m5JyVB0ZY1" version="14.8.3" type="github">
  <diagram id="C5RBs43oDa-KdzZeNtuy" name="Page-1">
    <mxGraphModel dx="402" dy="426" grid="1" gridSize="10" guides="1" tooltips="1" connect="1" arrows="1" fold="1" page="1" pageScale="1" pageWidth="827" pageHeight="1169" math="0" shadow="0">
      <root>
        <mxCell id="WIyWlLk6GJQsqaUBKTNV-0" />
        <mxCell id="WIyWlLk6GJQsqaUBKTNV-1" parent="WIyWlLk6GJQsqaUBKTNV-0" />
        <mxCell id="_jVymdtUeh71ZOq7PDEo-0" value="Start" style="rounded=1;whiteSpace=wrap;html=1;fontSize=12;glass=0;strokeWidth=1;shadow=0;" vertex="1" parent="WIyWlLk6GJQsqaUBKTNV-1">
          <mxGeometry x="70" y="40" width="60" height="20" as="geometry" />
        </mxCell>
        <mxCell id="_jVymdtUeh71ZOq7PDEo-1" value="End" style="rounded=1;whiteSpace=wrap;html=1;fontSize=12;glass=0;strokeWidth=1;shadow=0;" vertex="1" parent="WIyWlLk6GJQsqaUBKTNV-1">
          <mxGeometry x="70" y="520" width="60" height="20" as="geometry" />
        </mxCell>
        <mxCell id="_jVymdtUeh71ZOq7PDEo-2" value="age=input(&#39;Enter your age:&#39;)" style="shape=parallelogram;perimeter=parallelogramPerimeter;whiteSpace=wrap;html=1;fixedSize=1;" vertex="1" parent="WIyWlLk6GJQsqaUBKTNV-1">
          <mxGeometry x="10" y="80" width="180" height="30" as="geometry" />
        </mxCell>
        <mxCell id="_jVymdtUeh71ZOq7PDEo-3" value="" style="rounded=0;html=1;jettySize=auto;orthogonalLoop=1;fontSize=11;endArrow=block;endFill=0;endSize=8;strokeWidth=1;shadow=0;labelBackgroundColor=none;edgeStyle=orthogonalEdgeStyle;" edge="1" parent="WIyWlLk6GJQsqaUBKTNV-1">
          <mxGeometry relative="1" as="geometry">
            <mxPoint x="99.5" y="60" as="sourcePoint" />
            <mxPoint x="100" y="80" as="targetPoint" />
          </mxGeometry>
        </mxCell>
        <mxCell id="_jVymdtUeh71ZOq7PDEo-4" value="age&amp;gt;=60" style="rhombus;whiteSpace=wrap;html=1;" vertex="1" parent="WIyWlLk6GJQsqaUBKTNV-1">
          <mxGeometry x="60" y="130" width="80" height="80" as="geometry" />
        </mxCell>
        <mxCell id="_jVymdtUeh71ZOq7PDEo-5" value="&#39;You are Senoir Adult.&#39;" style="shape=parallelogram;perimeter=parallelogramPerimeter;whiteSpace=wrap;html=1;fixedSize=1;" vertex="1" parent="WIyWlLk6GJQsqaUBKTNV-1">
          <mxGeometry x="150" y="155" width="170" height="30" as="geometry" />
        </mxCell>
        <mxCell id="_jVymdtUeh71ZOq7PDEo-7" value="" style="rounded=0;html=1;jettySize=auto;orthogonalLoop=1;fontSize=11;endArrow=block;endFill=0;endSize=8;strokeWidth=1;shadow=0;labelBackgroundColor=none;edgeStyle=orthogonalEdgeStyle;exitX=0.5;exitY=1;exitDx=0;exitDy=0;entryX=0.5;entryY=0;entryDx=0;entryDy=0;" edge="1" parent="WIyWlLk6GJQsqaUBKTNV-1" source="_jVymdtUeh71ZOq7PDEo-2" target="_jVymdtUeh71ZOq7PDEo-4">
          <mxGeometry relative="1" as="geometry">
            <mxPoint x="109.5" y="70" as="sourcePoint" />
            <mxPoint x="110" y="90" as="targetPoint" />
          </mxGeometry>
        </mxCell>
        <mxCell id="_jVymdtUeh71ZOq7PDEo-8" value="age&amp;gt;=19" style="rhombus;whiteSpace=wrap;html=1;" vertex="1" parent="WIyWlLk6GJQsqaUBKTNV-1">
          <mxGeometry x="60" y="230" width="80" height="80" as="geometry" />
        </mxCell>
        <mxCell id="_jVymdtUeh71ZOq7PDEo-9" value="&#39;You are Adult.&#39;" style="shape=parallelogram;perimeter=parallelogramPerimeter;whiteSpace=wrap;html=1;fixedSize=1;" vertex="1" parent="WIyWlLk6GJQsqaUBKTNV-1">
          <mxGeometry x="150" y="255" width="170" height="30" as="geometry" />
        </mxCell>
        <mxCell id="_jVymdtUeh71ZOq7PDEo-11" value="" style="rounded=0;html=1;jettySize=auto;orthogonalLoop=1;fontSize=11;endArrow=block;endFill=0;endSize=8;strokeWidth=1;shadow=0;labelBackgroundColor=none;edgeStyle=orthogonalEdgeStyle;exitX=0.5;exitY=1;exitDx=0;exitDy=0;entryX=0.5;entryY=0;entryDx=0;entryDy=0;" edge="1" parent="WIyWlLk6GJQsqaUBKTNV-1" target="_jVymdtUeh71ZOq7PDEo-8">
          <mxGeometry relative="1" as="geometry">
            <mxPoint x="100" y="210" as="sourcePoint" />
            <mxPoint x="110" y="190" as="targetPoint" />
          </mxGeometry>
        </mxCell>
        <mxCell id="_jVymdtUeh71ZOq7PDEo-12" value="age&amp;gt;=13" style="rhombus;whiteSpace=wrap;html=1;" vertex="1" parent="WIyWlLk6GJQsqaUBKTNV-1">
          <mxGeometry x="60" y="330" width="80" height="80" as="geometry" />
        </mxCell>
        <mxCell id="_jVymdtUeh71ZOq7PDEo-13" value="&#39;You are Adolescence.&#39;" style="shape=parallelogram;perimeter=parallelogramPerimeter;whiteSpace=wrap;html=1;fixedSize=1;" vertex="1" parent="WIyWlLk6GJQsqaUBKTNV-1">
          <mxGeometry x="150" y="355" width="170" height="30" as="geometry" />
        </mxCell>
        <mxCell id="_jVymdtUeh71ZOq7PDEo-15" value="" style="rounded=0;html=1;jettySize=auto;orthogonalLoop=1;fontSize=11;endArrow=block;endFill=0;endSize=8;strokeWidth=1;shadow=0;labelBackgroundColor=none;edgeStyle=orthogonalEdgeStyle;exitX=0.5;exitY=1;exitDx=0;exitDy=0;entryX=0.5;entryY=0;entryDx=0;entryDy=0;" edge="1" parent="WIyWlLk6GJQsqaUBKTNV-1" target="_jVymdtUeh71ZOq7PDEo-12">
          <mxGeometry relative="1" as="geometry">
            <mxPoint x="100" y="310" as="sourcePoint" />
            <mxPoint x="110" y="290" as="targetPoint" />
          </mxGeometry>
        </mxCell>
        <mxCell id="_jVymdtUeh71ZOq7PDEo-18" value="" style="rounded=0;html=1;jettySize=auto;orthogonalLoop=1;fontSize=11;endArrow=block;endFill=0;endSize=8;strokeWidth=1;shadow=0;labelBackgroundColor=none;edgeStyle=orthogonalEdgeStyle;exitX=0.5;exitY=1;exitDx=0;exitDy=0;entryX=0.5;entryY=0;entryDx=0;entryDy=0;" edge="1" parent="WIyWlLk6GJQsqaUBKTNV-1">
          <mxGeometry relative="1" as="geometry">
            <mxPoint x="100" y="410" as="sourcePoint" />
            <mxPoint x="100" y="430" as="targetPoint" />
          </mxGeometry>
        </mxCell>
        <mxCell id="_jVymdtUeh71ZOq7PDEo-20" value="" style="rounded=0;html=1;jettySize=auto;orthogonalLoop=1;fontSize=11;endArrow=block;endFill=0;endSize=8;strokeWidth=1;shadow=0;labelBackgroundColor=none;edgeStyle=orthogonalEdgeStyle;exitX=0.5;exitY=1;exitDx=0;exitDy=0;entryX=0.5;entryY=0;entryDx=0;entryDy=0;" edge="1" parent="WIyWlLk6GJQsqaUBKTNV-1">
          <mxGeometry relative="1" as="geometry">
            <mxPoint x="100" y="460" as="sourcePoint" />
            <mxPoint x="100" y="480" as="targetPoint" />
          </mxGeometry>
        </mxCell>
        <mxCell id="_jVymdtUeh71ZOq7PDEo-21" value="&#39;You are Child.&#39;" style="shape=parallelogram;perimeter=parallelogramPerimeter;whiteSpace=wrap;html=1;fixedSize=1;" vertex="1" parent="WIyWlLk6GJQsqaUBKTNV-1">
          <mxGeometry x="15" y="430" width="170" height="30" as="geometry" />
        </mxCell>
        <mxCell id="_jVymdtUeh71ZOq7PDEo-24" value="" style="ellipse;whiteSpace=wrap;html=1;aspect=fixed;" vertex="1" parent="WIyWlLk6GJQsqaUBKTNV-1">
          <mxGeometry x="90" y="480" width="20" height="20" as="geometry" />
        </mxCell>
        <mxCell id="_jVymdtUeh71ZOq7PDEo-27" value="" style="rounded=0;html=1;jettySize=auto;orthogonalLoop=1;fontSize=11;endArrow=block;endFill=0;endSize=8;strokeWidth=1;shadow=0;labelBackgroundColor=none;edgeStyle=orthogonalEdgeStyle;exitX=0.5;exitY=1;exitDx=0;exitDy=0;entryX=0.5;entryY=0;entryDx=0;entryDy=0;" edge="1" parent="WIyWlLk6GJQsqaUBKTNV-1" source="_jVymdtUeh71ZOq7PDEo-24" target="_jVymdtUeh71ZOq7PDEo-1">
          <mxGeometry relative="1" as="geometry">
            <mxPoint x="99.5" y="510" as="sourcePoint" />
            <mxPoint x="99.5" y="530" as="targetPoint" />
          </mxGeometry>
        </mxCell>
        <mxCell id="_jVymdtUeh71ZOq7PDEo-30" value="" style="rounded=0;html=1;jettySize=auto;orthogonalLoop=1;fontSize=11;endArrow=block;endFill=0;endSize=8;strokeWidth=1;shadow=0;labelBackgroundColor=none;edgeStyle=orthogonalEdgeStyle;entryX=1;entryY=0.5;entryDx=0;entryDy=0;" edge="1" parent="WIyWlLk6GJQsqaUBKTNV-1" target="_jVymdtUeh71ZOq7PDEo-24">
          <mxGeometry relative="1" as="geometry">
            <mxPoint x="340" y="170" as="sourcePoint" />
            <mxPoint x="430" y="510" as="targetPoint" />
            <Array as="points">
              <mxPoint x="340" y="170" />
              <mxPoint x="340" y="490" />
            </Array>
          </mxGeometry>
        </mxCell>
        <mxCell id="_jVymdtUeh71ZOq7PDEo-34" value="" style="rounded=0;html=1;jettySize=auto;orthogonalLoop=1;fontSize=11;endArrow=block;endFill=0;endSize=8;strokeWidth=1;shadow=0;labelBackgroundColor=none;edgeStyle=orthogonalEdgeStyle;exitX=1;exitY=0.5;exitDx=0;exitDy=0;" edge="1" parent="WIyWlLk6GJQsqaUBKTNV-1" source="_jVymdtUeh71ZOq7PDEo-12">
          <mxGeometry relative="1" as="geometry">
            <mxPoint x="110" y="420" as="sourcePoint" />
            <mxPoint x="160" y="370" as="targetPoint" />
          </mxGeometry>
        </mxCell>
        <mxCell id="_jVymdtUeh71ZOq7PDEo-35" value="" style="rounded=0;html=1;jettySize=auto;orthogonalLoop=1;fontSize=11;endArrow=block;endFill=0;endSize=8;strokeWidth=1;shadow=0;labelBackgroundColor=none;edgeStyle=orthogonalEdgeStyle;entryX=0;entryY=0.5;entryDx=0;entryDy=0;" edge="1" parent="WIyWlLk6GJQsqaUBKTNV-1" source="_jVymdtUeh71ZOq7PDEo-8" target="_jVymdtUeh71ZOq7PDEo-9">
          <mxGeometry relative="1" as="geometry">
            <mxPoint x="150" y="380" as="sourcePoint" />
            <mxPoint x="170" y="380" as="targetPoint" />
            <Array as="points">
              <mxPoint x="140" y="270" />
              <mxPoint x="140" y="270" />
            </Array>
          </mxGeometry>
        </mxCell>
        <mxCell id="_jVymdtUeh71ZOq7PDEo-36" value="" style="rounded=0;html=1;jettySize=auto;orthogonalLoop=1;fontSize=11;endArrow=block;endFill=0;endSize=8;strokeWidth=1;shadow=0;labelBackgroundColor=none;edgeStyle=orthogonalEdgeStyle;entryX=0;entryY=0.5;entryDx=0;entryDy=0;exitX=1;exitY=0.5;exitDx=0;exitDy=0;" edge="1" parent="WIyWlLk6GJQsqaUBKTNV-1" source="_jVymdtUeh71ZOq7PDEo-4" target="_jVymdtUeh71ZOq7PDEo-5">
          <mxGeometry relative="1" as="geometry">
            <mxPoint x="150" y="280" as="sourcePoint" />
            <mxPoint x="170" y="280" as="targetPoint" />
            <Array as="points">
              <mxPoint x="150" y="170" />
              <mxPoint x="150" y="170" />
            </Array>
          </mxGeometry>
        </mxCell>
        <mxCell id="_jVymdtUeh71ZOq7PDEo-37" value="" style="rounded=0;html=1;jettySize=auto;orthogonalLoop=1;fontSize=11;endArrow=block;endFill=0;endSize=8;strokeWidth=1;shadow=0;labelBackgroundColor=none;edgeStyle=orthogonalEdgeStyle;exitX=1;exitY=0.5;exitDx=0;exitDy=0;" edge="1" parent="WIyWlLk6GJQsqaUBKTNV-1" source="_jVymdtUeh71ZOq7PDEo-9">
          <mxGeometry relative="1" as="geometry">
            <mxPoint x="150" y="180" as="sourcePoint" />
            <mxPoint x="340" y="270" as="targetPoint" />
            <Array as="points">
              <mxPoint x="330" y="270" />
              <mxPoint x="330" y="270" />
            </Array>
          </mxGeometry>
        </mxCell>
        <mxCell id="_jVymdtUeh71ZOq7PDEo-38" value="" style="rounded=0;html=1;jettySize=auto;orthogonalLoop=1;fontSize=11;endArrow=block;endFill=0;endSize=8;strokeWidth=1;shadow=0;labelBackgroundColor=none;edgeStyle=orthogonalEdgeStyle;exitX=1;exitY=0.5;exitDx=0;exitDy=0;" edge="1" parent="WIyWlLk6GJQsqaUBKTNV-1" source="_jVymdtUeh71ZOq7PDEo-13">
          <mxGeometry relative="1" as="geometry">
            <mxPoint x="320" y="280" as="sourcePoint" />
            <mxPoint x="340" y="370" as="targetPoint" />
            <Array as="points">
              <mxPoint x="340" y="370" />
            </Array>
          </mxGeometry>
        </mxCell>
        <mxCell id="_jVymdtUeh71ZOq7PDEo-39" value="" style="rounded=0;html=1;jettySize=auto;orthogonalLoop=1;fontSize=11;endArrow=block;endFill=0;endSize=8;strokeWidth=1;shadow=0;labelBackgroundColor=none;edgeStyle=orthogonalEdgeStyle;exitX=1;exitY=0.5;exitDx=0;exitDy=0;" edge="1" parent="WIyWlLk6GJQsqaUBKTNV-1" source="_jVymdtUeh71ZOq7PDEo-5">
          <mxGeometry relative="1" as="geometry">
            <mxPoint x="320" y="280" as="sourcePoint" />
            <mxPoint x="340" y="170" as="targetPoint" />
            <Array as="points">
              <mxPoint x="320" y="170" />
              <mxPoint x="320" y="170" />
            </Array>
          </mxGeometry>
        </mxCell>
        <mxCell id="_jVymdtUeh71ZOq7PDEo-41" value="F" style="text;html=1;strokeColor=none;fillColor=none;align=center;verticalAlign=middle;whiteSpace=wrap;rounded=0;" vertex="1" parent="WIyWlLk6GJQsqaUBKTNV-1">
          <mxGeometry x="90" y="200" width="40" height="20" as="geometry" />
        </mxCell>
        <mxCell id="_jVymdtUeh71ZOq7PDEo-42" value="T" style="text;html=1;strokeColor=none;fillColor=none;align=center;verticalAlign=middle;whiteSpace=wrap;rounded=0;" vertex="1" parent="WIyWlLk6GJQsqaUBKTNV-1">
          <mxGeometry x="120" y="150" width="40" height="20" as="geometry" />
        </mxCell>
        <mxCell id="_jVymdtUeh71ZOq7PDEo-43" value="T" style="text;html=1;strokeColor=none;fillColor=none;align=center;verticalAlign=middle;whiteSpace=wrap;rounded=0;" vertex="1" parent="WIyWlLk6GJQsqaUBKTNV-1">
          <mxGeometry x="120" y="250" width="40" height="20" as="geometry" />
        </mxCell>
        <mxCell id="_jVymdtUeh71ZOq7PDEo-44" value="T" style="text;html=1;strokeColor=none;fillColor=none;align=center;verticalAlign=middle;whiteSpace=wrap;rounded=0;" vertex="1" parent="WIyWlLk6GJQsqaUBKTNV-1">
          <mxGeometry x="120" y="350" width="40" height="20" as="geometry" />
        </mxCell>
        <mxCell id="_jVymdtUeh71ZOq7PDEo-46" value="F" style="text;html=1;strokeColor=none;fillColor=none;align=center;verticalAlign=middle;whiteSpace=wrap;rounded=0;" vertex="1" parent="WIyWlLk6GJQsqaUBKTNV-1">
          <mxGeometry x="90" y="300" width="40" height="20" as="geometry" />
        </mxCell>
        <mxCell id="_jVymdtUeh71ZOq7PDEo-47" value="F" style="text;html=1;strokeColor=none;fillColor=none;align=center;verticalAlign=middle;whiteSpace=wrap;rounded=0;" vertex="1" parent="WIyWlLk6GJQsqaUBKTNV-1">
          <mxGeometry x="90" y="400" width="40" height="20" as="geometry" />
        </mxCell>
      </root>
    </mxGraphModel>
  </diagram>
</mxfile>
